PathFileType	4	(X/Y/Z)	c:/Users/goper/Files/vsCode/490R/osim_files/C17/C17_Fast_01.trc
DataRate	CameraRate	NumFrames	NumMarkers	Units                	OrigDataRate	OrigDataStartFrame	OrigNumFrames
250.00	250.00	9	36	mm	250.0	1435	2868
                Frame#	Time	LPSIS			LASIS			LTH1			LTH2			LTH3			LTH4			LLFE			LMFE			LSH1			LSH2			LSH3			LSH4			LLMAL			LMMAL			LCAL			LMTP5			LTOE			LMTP1			RPSIS			RASIS			RTH1			RTH2			RTH3			RTH4			RLFE			RMFE			RSH1			RSH2			RSH3			RSH4			RLMAL			RMMAL			RCAL			RMTP1			RTOE			RMTP5		
		X1	Y1	Z1	X2	Y2	Z2	X3	Y3	Z3	X4	Y4	Z4	X5	Y5	Z5	X6	Y6	Z6	X7	Y7	Z7	X8	Y8	Z8	X9	Y9	Z9	X10	Y10	Z10	X11	Y11	Z11	X12	Y12	Z12	X13	Y13	Z13	X14	Y14	Z14	X15	Y15	Z15	X16	Y16	Z16	X17	Y17	Z17	X18	Y18	Z18	X19	Y19	Z19	X20	Y20	Z20	X21	Y21	Z21	X22	Y22	Z22	X23	Y23	Z23	X24	Y24	Z24	X25	Y25	Z25	X26	Y26	Z26	X27	Y27	Z27	X28	Y28	Z28	X29	Y29	Z29	X30	Y30	Z30	X31	Y31	Z31	X32	Y32	Z32	X33	Y33	Z33	X34	Y34	Z34	X35	Y35	Z35	X36	Y36	Z36

1435	5.73600	-1932.92859	1035.16211	279.64417	-2111.98779	979.92639	408.43930	-1931.14319	701.09943	424.11551	-1924.66345	658.13971	416.17319	-1990.88379	689.46625	432.99591	-1976.91541	646.20947	424.03546	-1867.78906	494.75955	388.44370	-1880.15613	495.95694	265.28699	-1685.86316	338.13928	376.48422	-1661.72314	301.81656	369.31152	-1732.84277	298.17108	378.99417	-1702.25085	268.06506	370.58951	-1590.68457	170.19789	342.40512	-1613.30029	178.64230	256.90582	-1508.35144	180.30893	292.19537	-1649.70190	48.66914	348.39374	-1701.23438	61.13392	280.00555	-1686.16479	49.99925	231.93315	-1945.33569	1027.04102	205.75346	-2135.03320	994.48981	138.04411	-2192.42334	722.42896	90.71708	-2214.30029	682.08441	101.92177	-2245.97241	748.61823	106.78659	-2264.48193	704.89417	108.89838	-2330.87354	499.44617	138.77905	-2304.19507	507.74408	261.99237	-2324.51294	291.68347	148.91058	-2343.63135	251.53265	167.19740	-2383.92090	313.54315	153.58174	-2393.95288	267.84192	168.98053	-2409.29419	101.12648	200.81052	-2425.84375	125.44207	288.63028	-2351.36182	48.45167	245.65152	-2578.30518	109.46423	291.24976	-2582.98950	139.39268	249.99352	-2542.85205	87.16489	182.40349
1436	5.74000	-1941.25830	1034.29810	279.81943	-2120.33667	978.95831	408.61850	-1940.33508	699.69513	424.10461	-1934.07336	656.75165	416.40128	-2000.24487	688.38220	433.26767	-1986.25891	644.99615	424.45578	-1877.63831	493.28778	389.40927	-1890.25549	494.14746	266.24316	-1693.44543	339.66202	377.35699	-1668.74561	303.79251	370.22003	-1739.73389	298.96115	380.01556	-1708.74182	269.38702	371.66360	-1595.46667	173.03470	343.59531	-1618.35583	181.12776	258.18759	-1513.70361	185.74104	293.23450	-1650.84534	49.27647	348.67358	-1701.50671	61.33686	280.10031	-1686.93909	50.13101	232.27837	-1953.39014	1026.17346	205.73483	-2143.11841	993.98132	138.25426	-2200.50171	722.77142	90.91856	-2222.59692	682.44916	101.84817	-2253.96875	749.08398	107.23267	-2266.45361	703.19739	112.09768	-2341.40088	500.61337	138.90808	-2312.04297	508.63998	262.35617	-2332.16064	293.41150	149.15485	-2350.34351	252.59970	167.16264	-2391.65283	314.09476	154.05249	-2401.00098	268.05139	168.87491	-2411.52856	100.59618	200.33189	-2428.97900	124.61372	288.42801	-2352.11646	49.88707	245.30965	-2581.17236	104.83023	290.61011	-2586.19116	134.01974	249.53246	-2544.86304	82.86162	182.02339
1437	5.74400	-1949.39978	1033.63489	280.06097	-2128.74829	978.12891	408.69586	-1949.73059	698.27014	424.08215	-1943.68933	655.28058	416.67514	-2009.71118	687.31140	433.50024	-1995.89648	643.85974	424.92920	-1887.81592	491.79993	390.35208	-1900.55823	492.28418	267.19623	-1701.38806	341.14539	378.52567	-1676.14978	305.75317	371.24564	-1747.06348	299.79956	381.11011	-1715.56189	270.77200	372.84830	-1600.63110	175.95538	344.90683	-1623.92725	183.59657	259.57739	-1519.54211	191.30476	294.24683	-1652.27161	49.97674	348.96384	-1701.91675	61.60405	280.14316	-1687.66443	50.61182	232.35577	-1961.44788	1025.46838	205.70348	-2150.94165	993.50879	138.45486	-2209.23730	723.31927	91.10445	-2230.80933	682.97363	101.75513	-2261.87695	749.71149	107.32328	-2274.68628	703.88330	112.16529	-2350.64819	502.15616	139.02351	-2319.10400	509.74582	262.62286	-2339.62280	295.18753	148.74728	-2356.96387	253.81017	166.47049	-2400.11450	315.37738	153.91479	-2407.14600	267.21527	168.19138	-2413.31152	100.11092	199.87398	-2431.79761	123.96490	288.09634	-2353.26147	50.57256	245.52475	-2583.61182	100.75766	289.20346	-2589.23389	129.59065	247.99817	-2546.30444	78.93058	181.02313
1438	5.74800	-1957.56958	1033.03589	280.45819	-2137.08252	977.32324	408.65277	-1959.26038	696.86395	424.05646	-1953.43457	653.80902	416.88290	-2019.16223	686.16388	433.74115	-2005.59717	642.58881	425.36499	-1897.85742	490.44754	391.42953	-1911.36182	490.37292	268.28305	-1709.78772	342.69290	379.61594	-1683.93176	307.67505	372.31622	-1754.72888	300.68015	382.23364	-1722.78455	272.06342	373.99866	-1606.10706	178.93204	346.30316	-1629.83606	186.20624	260.90549	-1525.85730	197.08551	295.29922	-1653.45435	50.71469	349.27792	-1701.95789	61.77346	280.46140	-1688.57214	51.14796	232.44609	-1969.28674	1025.00159	205.78186	-2158.82886	992.99298	138.42722	-2217.41382	723.90173	90.95887	-2238.50244	683.65662	101.82432	-2269.89233	750.52795	107.15675	-2289.03418	706.96625	108.92081	-2360.99097	503.96912	139.70763	-2326.24438	511.00412	262.82181	-2347.06396	296.82755	147.58119	-2363.64648	255.20952	165.05666	-2408.40112	316.66779	154.22372	-2414.47729	268.77045	168.85797	-2414.50171	99.78835	199.40076	-2434.66235	123.51655	288.04532	-2353.71436	51.64206	245.26462	-2586.11328	97.53961	287.43076	-2591.85547	125.64337	246.02899	-2547.22559	75.62080	179.61618
1439	5.75200	-1965.69482	1032.54358	280.97397	-2145.39526	976.65240	408.67871	-1968.87000	695.34021	424.02390	-1963.45349	652.23541	417.18491	-2029.00391	685.10114	434.05548	-2015.62256	641.36725	425.80304	-1909.20996	488.63431	392.42990	-1922.28955	488.33606	269.31299	-1718.59839	344.30887	380.34891	-1692.14294	309.63016	373.37045	-1762.90247	301.51559	383.48273	-1730.45288	273.41428	375.23599	-1612.06653	181.88994	347.73157	-1636.12183	188.68491	262.36926	-1532.83325	203.00464	296.47028	-1655.01086	51.60181	349.60852	-1702.46777	62.05600	280.60403	-1689.40674	51.76839	232.54919	-1977.17090	1024.67126	205.97157	-2166.69434	992.80908	138.48921	-2225.14062	724.55884	91.50241	-2246.99976	684.50073	101.29177	-2278.04175	751.53827	106.66424	-2297.40454	708.06891	108.70490	-2371.27563	505.68515	140.60817	-2333.33691	512.22205	262.81284	-2354.48462	298.26520	145.94043	-2370.05005	256.31726	163.57520	-2415.80762	317.31104	154.53522	-2421.00781	269.29114	168.93811	-2415.74414	99.54404	198.95677	-2437.14746	123.22276	287.62698	-2354.51733	52.45543	245.32739	-2588.34473	94.54598	285.48221	-2594.29541	122.10883	243.74211	-2548.04224	72.48528	178.01799
1440	5.75600	-1973.87817	1032.24170	281.53601	-2153.62500	976.03729	408.59991	-1978.84302	693.68091	424.09183	-1973.97961	650.66907	417.63885	-2038.92969	683.97174	434.24475	-2025.85754	640.19958	426.20352	-1920.39771	487.03442	393.52090	-1933.65759	486.27798	270.40524	-1727.83594	345.74945	381.64099	-1701.42444	311.38382	375.17282	-1771.42065	302.36002	384.72919	-1738.44604	274.75812	376.62311	-1618.43286	184.95755	349.29459	-1642.90466	191.25749	263.93030	-1540.35083	209.14970	297.78964	-1656.58521	52.61145	350.01614	-1703.26074	62.38912	280.83704	-1690.65588	52.67020	232.78426	-1985.03345	1024.59595	206.25340	-2174.57422	992.79120	138.54538	-2234.09595	725.60431	90.49425	-2255.45654	685.59357	101.16366	-2286.20581	752.74567	106.14959	-2305.93604	709.40875	108.49999	-2380.61816	507.11380	141.74644	-2340.07446	513.11682	262.58051	-2361.78320	299.38373	144.10788	-2376.23438	257.03992	162.28435	-2422.23975	317.14221	154.74332	-2427.16431	269.62894	169.01669	-2416.89014	99.28022	198.57483	-2439.92700	122.15814	288.75287	-2355.55420	53.11754	245.65308	-2590.33960	91.82234	283.50690	-2596.42334	118.78567	241.50568	-2548.73169	69.56637	176.54936
1441	5.76000	-1981.90576	1032.01416	282.26254	-2162.51978	975.59735	408.33151	-1988.86255	692.15857	424.25211	-1983.98706	649.02618	417.84396	-2049.08618	682.94305	434.50189	-2036.36230	638.96887	426.64276	-1931.89331	485.30563	394.63828	-1945.36438	484.10248	271.51453	-1737.40234	347.35547	382.75412	-1709.99121	313.53937	375.71848	-1780.29504	303.17828	386.13312	-1746.97961	276.11322	378.09174	-1625.35767	188.08873	350.81689	-1650.00024	193.85715	265.58563	-1548.38293	215.47386	299.24258	-1658.43005	53.91391	350.41129	-1704.55249	62.94606	281.19177	-1692.15015	53.88006	233.18608	-1992.91504	1024.63916	206.64238	-2182.00391	993.61224	138.15294	-2242.52637	726.56519	90.26192	-2264.07227	686.77966	101.11888	-2294.44751	754.13794	105.73682	-2314.54639	710.88434	108.33504	-2390.01831	508.47037	142.53197	-2346.97388	513.88702	262.41113	-2368.73438	300.29611	142.14883	-2382.35889	257.79254	160.53513	-2429.62671	317.98306	154.71277	-2433.05786	269.74054	169.00401	-2418.06665	99.11146	198.24318	-2441.55884	122.20608	286.59070	-2356.02710	54.07722	245.38951	-2592.04272	89.00871	282.09341	-2598.44067	115.35038	239.72432	-2549.53027	66.60976	175.48602
1442	5.76400	-1990.36755	1031.28870	282.59290	-2171.61328	974.64404	407.97696	-1998.99780	690.44147	424.46429	-1994.54370	647.35895	418.29785	-2059.38013	681.86615	434.76248	-2047.02563	637.73102	427.17508	-1943.75867	483.53329	395.71872	-1957.41125	481.82584	272.61554	-1747.61743	348.89313	383.90207	-1719.46069	315.59540	377.01672	-1791.38586	302.60239	385.78186	-1755.59863	277.80273	379.29514	-1632.68115	191.22394	352.47318	-1657.70874	196.49911	267.26193	-1557.06262	221.94881	300.90909	-1660.47937	55.52987	350.96512	-1706.33020	63.64167	281.69846	-1693.72290	55.15716	233.45836	-2000.70496	1024.78760	207.22777	-2190.38037	994.99359	137.82060	-2251.35181	727.51636	89.88309	-2271.84424	688.35211	100.59521	-2302.70142	755.55890	105.52302	-2323.09399	712.44958	108.30978	-2398.92749	509.65353	143.00458	-2354.34717	514.82159	262.25421	-2375.28418	300.87091	140.20598	-2390.18115	258.61389	155.92392	-2435.32446	317.36349	154.53658	-2438.59009	269.65225	168.83983	-2419.40063	98.88670	198.04192	-2443.99976	122.72656	286.29593	-2356.74658	54.85374	245.42038	-2593.66382	85.97387	281.23410	-2600.30859	111.90474	238.76038	-2550.36841	63.90150	174.79684
1443	5.76800	-1998.36353	1031.17163	283.21896	-2179.77856	974.24097	407.67145	-2009.36890	688.72198	424.78860	-2005.33411	645.61768	418.73599	-2069.81665	680.72595	434.98917	-2057.81470	636.52411	427.57867	-1955.98914	481.72437	396.75226	-1969.86584	479.47021	273.70105	-1757.94543	350.55563	385.00214	-1729.49622	317.71500	377.94431	-1800.99060	303.58939	387.23389	-1764.98950	279.29990	380.91815	-1640.64075	194.55901	354.20798	-1665.48938	199.28474	268.99207	-1566.30042	228.66534	302.82306	-1662.70581	57.45979	351.60712	-1708.38635	64.45885	282.30518	-1695.58582	56.81495	233.93289	-2007.83862	1025.29138	207.70117	-2198.04810	995.90729	137.74036	-2258.72388	728.62488	89.45581	-2282.40503	689.28455	101.15814	-2310.86401	757.05518	105.54111	-2331.53638	713.93286	108.27976	-2407.23096	510.38239	143.18759	-2361.44238	515.47076	262.03976	-2381.46094	301.05090	138.41315	-2395.42871	258.79666	154.43701	-2441.17578	317.08115	154.16222	-2443.71582	269.28305	168.55861	-2420.78882	98.76788	197.91920	-2446.02026	122.34604	286.06863	-2357.45923	55.42303	245.34612	-2595.08472	82.89895	281.03745	-2602.13135	108.44563	238.55211	-2551.34692	61.35743	174.66014
